<?xml version="1.0" encoding="utf-8"?>
<!-- Generator: Adobe Illustrator 28.2.0, SVG Export Plug-In . SVG Version: 6.00 Build 0)  -->
<svg version="1.1" id="Layer_1" xmlns="http://www.w3.org/2000/svg" xmlns:xlink="http://www.w3.org/1999/xlink" x="0px" y="0px"
	 viewBox="0 0 1024 1024" style="enable-background:new 0 0 1024 1024;" xml:space="preserve">
<style type="text/css">
	.st0{fill:#FFFFFF;stroke:#000000;stroke-miterlimit:10;}
	.st1{fill:#347DFF;}
</style>
<polygon class="st0" points="523.6,912.9 173.8,708.6 166.8,311.6 509.7,119 859.6,323.4 866.5,720.2 "/>
<path class="st1" d="M676.4,414c-13,0-26,11.6-26,27.1v34.8c-1.8,15.5-13,27.1-27.9,27.1c-14.9,0-29.7-11.6-29.7-29V369.6
	c0-13.5-11.1-27.1-26-27.1c-13,0-26,11.6-26,27.1v65.6c0,15.5-13,30.9-29.7,30.9c-14.9,0-27.9-11.6-29.7-29v-85
	c0-13.5-11.1-27.1-26-27.1c-13,0-26,11.6-26,27.1v119.8c0,15.5-13,30.9-29.7,30.9c-14.9,0-27.9-11.6-27.9-30.9V441
	c0-13.5-11.1-27.1-26-27.1s-26,11.6-26,27.1v133.3c0,13.5,11.1,27.1,26,27.1s26-11.6,26-27.1v-13.5c0-15.5,13-30.9,29.7-30.9
	c14.9,0,29.7,13.5,29.7,30.9V611c0,13.5,11.1,27.1,26,27.1s26-11.6,26-27.1v-86.9c0-15.5,13-29,29.7-29c14.9,0,29.7,13.5,29.7,30.9
	v104.3c0,13.5,11.1,27.1,26,27.1c13,0,26-11.6,26-27.1v-67.6c0-15.5,11.1-29,29.7-29c14.9,0,27.9,11.6,27.9,27.1v13.5
	c0,13.5,11.1,27.1,26,27.1c13,0,26-11.6,26-27.1V441.1C700.5,425.6,689.4,414,676.4,414L676.4,414z M253.9,469.3
	c-14.9,0-29.9,12.8-29.9,29.9v29.9c0,14.9,12.8,29.9,29.9,29.9c14.9,0,29.9-12.8,29.9-29.9v-29.9
	C279.5,482.1,266.7,469.3,253.9,469.3L253.9,469.3z M770.1,469.3c-14.9,0-29.9,12.8-29.9,29.9v29.9c0,14.9,12.8,29.9,29.9,29.9
	s29.9-12.8,29.9-29.9v-29.9C800,482.1,787.2,469.3,770.1,469.3L770.1,469.3z"/>
<g>
	<path class="st1" d="M518.2,954c-20,0-38.6-7.3-52.6-20.6c-13.9-13.3-21.6-31.1-21.6-50.1v-1.2L213.5,755.8l-1,0.6
		c-11.7,7.4-27.9,11.8-43.3,11.8c-20,0-38.6-7.3-52.6-20.6C102.7,734.3,95,716.5,95,697.5c0-28.2,19.4-53.1,47.2-60.6l1.5-0.4V389.8
		l-1.2-0.5c-29.3-12-47.4-37.5-47.4-66.8c0-18.5,7.2-35.8,20.4-48.7c13.2-13,31-20.1,50-20.1c1.2,0,2.4,0,3.6,0.1
		c17.4,0,31.8,4.4,45.5,13.8l1,0.7l226.3-126.4v-2.9c0-19,7.7-36.8,21.6-50.1c14-13.3,32.7-20.7,52.7-20.7c2,0,4,0.1,5.9,0.2
		c38.3,2.8,68.3,34.1,68.3,71.2v2.4l226.2,122.3l1-0.8c11-8.7,26.7-13.7,43.1-13.7c19.9,0,38.6,7.3,52.5,20.6
		c13.9,13.3,21.6,31,21.6,50c0,27.8-17,53.2-43.2,64.8l-1.2,0.5v248.6l1.2,0.5c25.3,11.1,43.1,35.8,45.5,62.8c0,19-7.7,36.7-21.6,50
		c-13.9,13.3-32.6,20.6-52.6,20.6c-14.8,0-29.1-4.1-41.3-11.8l-1-0.6L592.3,882.2v1.2c0,19-7.7,36.8-21.6,50.1
		C556.8,946.7,538.1,954,518.2,954z M540.4,816l1.1,0.5c15.9,7.7,26.3,15.4,34.8,25.8l1.1,1.3l213.5-119l-0.3-1.4
		c-0.6-3-1.3-5.4-1.8-7.6c-1.4-5.4-2.4-9.3-2.4-16.3c0-8.3,1.5-13.7,3.1-20c0.3-1.2,0.7-2.5,1-3.8l0.4-1.5l-51.3-29.1
		c-4.3-2.9-9.5-8-9.5-16.5c0-13.4,11.9-22.3,23-22.3c0.7,0,2.3,0.5,3.5,0.9c1.5,0.5,3,0.9,4.2,1.1l56.8,30.7l0.9-0.5
		c7.6-3.7,16.2-8,24.4-10h6V385.4l-1.4-0.5c-16.2-5.3-28.2-11.4-34.7-17.8l-1.1-1.1l-49.2,29.2c-3.7,1.8-5.4,1.8-9.5,1.8
		c-13.8,0-23-11.5-23-22.3c0-8.5,5.2-13.7,9.6-16.6l51-31v-11.3c0-4,0-9.9,2-17.8l0.4-1.5L579.4,177.4l-1,1.5
		c-7.4,10.8-18.8,19.2-32.3,23.6l-1.4,0.5v61.8c0,12.2-9.6,22.2-21.8,22.8c-0.4,0-0.8,0-1.2,0c-13.8,0-23-11.5-23-22.3v-62.1
		l-1.1-0.5c-10.9-5.3-26.5-13.6-34.8-23.8l-1.1-1.3L245.9,298.8l0.5,1.6c1.9,5.8,1.9,11.5,1.9,17.6c0,3.8,0,9.6-1.8,13.3l-0.8,1.6
		l47,29.2l0,0.1c3.8,5.6,7.7,11.4,7.7,16.7c0,13.4-11.9,22.3-23,22.3c-1.6,0-5.4,0-6.9-1.4l-0.2-0.2l-53.5-29.2l-1,0.8
		c-7.3,5.3-15,9.4-26.6,13.9l-1.3,0.5v244.2l1.4,0.4c12.2,3.9,20.5,7.9,28.7,13.9l1.1,0.8l51.1-31.1c3.8-1.9,7.7-3.8,11.5-3.8
		c13.8,0,23,11.5,23,22.3c0,8.5-5.2,13.7-9.6,16.6l-0.2,0.1l-2,2l-51.5,31.3l0.9,1.7c1.8,3.6,1.8,7.4,1.8,13.2
		c0,6.4-1.4,11.5-3,17.4c-0.4,1.4-0.8,2.9-1.2,4.4l-0.4,1.5l215.7,121.4l1-1.7c8.8-15.1,24.6-22.1,36.4-25.4l1.5-0.4V754
		c2-13.6,9.8-20.5,23-20.5c14.3,0,21.3,10.6,23,20.5V816z"/>
	<path class="st1" d="M516.1,70c1.9,0,3.9,0.1,5.8,0.2c18.2,1.3,35,9.2,47.4,22.2c12.3,12.9,19.1,29.6,19.1,47.1v1.2v2.4l2.1,1.1
		l224,121.1l2.3,1.3l2.1-1.6c10.6-8.4,25.9-13.2,41.9-13.2c19.4,0,37.6,7.1,51.1,20.1c13.5,12.9,20.9,30.1,20.9,48.6
		c0,27-16.5,51.7-42,62.9l-2.4,1.1v2.6v246v2.6l2.4,1.1c24.6,10.8,42,34.8,44.3,61.1c0,18.4-7.5,35.6-21,48.4
		c-13.6,13-31.7,20.1-51.2,20.1c-14.4,0-28.3-4-40.2-11.5l-2-1.3l-2.1,1.1L592.4,879.8l-2.1,1.1v2.4c0,18.4-7.4,35.7-21,48.6
		c-13.6,13-31.7,20.1-51.2,20.1c-19.4,0-37.6-7.1-51.2-20.1c-13.5-12.9-21-30.2-21-48.6V881l-2.1-1.1L215.5,754.6l-2.1-1.1l-2,1.3
		c-11.4,7.2-27.2,11.5-42.3,11.5c-19.4,0-37.6-7.1-51.2-20.1c-13.5-12.9-21-30.2-21-48.6c0-27.3,18.8-51.4,45.7-58.7l3-0.8v-3.1
		V391.1v-2.7l-2.5-1C114.7,375.8,97,350.9,97,322.5c0-17.9,7-34.7,19.8-47.3c12.8-12.6,30.1-19.5,48.6-19.5c1.2,0,2.3,0,3.5,0.1
		l0.1,0h0.1c16.8,0,30.9,4.3,44.2,13.4l2,1.4l2.2-1.2l224.2-125.2l2-1.1v-2.3v-1.8c0-18.5,7.5-35.8,21-48.7
		C478.4,77.2,496.6,70,516.1,70 M521.6,285.5c-12.6,0-21-10.5-21-20.3v-60.8v-2.5l-2.3-1.1c-10.8-5.2-26-13.3-34.1-23.3l-2.1-2.6
		l-2.9,1.6L246.4,296.2l-2.9,1.6l1.1,3.1c1.8,5.5,1.8,11.1,1.8,17c0,3.4,0,9.1-1.6,12.4l-1.6,3.3l3.1,1.9l45.1,28
		c3.5,5.3,7.1,10.7,7.1,15.3c0,12.2-10.9,20.3-21,20.3c-4,0-5.2-0.5-5.5-0.9l-0.4-0.4l-0.5-0.3L219,369.2l-2.2-1.2l-2,1.5
		c-7.2,5.2-14.7,9.2-26.2,13.7l-2.5,1v2.7v241.3v2.9l2.8,0.9c12,3.8,20.1,7.8,28.1,13.6l2.2,1.6l2.3-1.4l49.9-30.3
		c3.6-1.8,7.3-3.6,10.6-3.6c12.6,0,21,10.5,21,20.3c0,6.1-2.9,11.2-8.6,14.9l-0.3,0.2l-0.3,0.3l-1.7,1.7l-49.7,30.2l-3.2,1.9
		l1.7,3.3c1.6,3.1,1.6,6.6,1.6,12.3c0,6.1-1.3,10.9-2.9,16.9c-0.4,1.4-0.8,2.9-1.2,4.5l-0.8,3l2.7,1.5l212.6,119.7l3.4,1.9l2-3.4
		c8.5-14.5,23.8-21.3,35.2-24.5l2.9-0.8v-3v-58.5c1.9-12.4,8.9-18.6,21-18.6c16.2,0,20.2,13.9,21,18.7v60.5v2.5l2.3,1.1
		c15.6,7.6,25.8,15.1,34.1,25.3l2.1,2.6l2.9-1.6L790.6,727l2.6-1.4l-0.6-2.9c-0.6-3-1.3-5.5-1.8-7.7c-1.3-5.3-2.3-9.1-2.3-15.8
		c0-8,1.4-13.3,3.1-19.5c0.3-1.3,0.7-2.5,1-3.9l0.8-3l-2.7-1.5l-49.9-28.4c-5.7-3.7-8.5-8.7-8.5-14.8c0-12.2,10.9-20.3,21-20.3
		c0.5,0,2,0.5,3,0.8c1.5,0.5,2.9,0.9,4.2,1.1l55.6,30l1.8,1l1.9-0.9c7.4-3.6,15.8-7.8,23.7-9.8h3.7h4v-4V386.9V384l-2.8-0.9
		c-15.9-5.2-27.6-11.2-33.9-17.3l-2.2-2.1l-2.6,1.6l-47.8,28.3c-3.3,1.5-4.6,1.5-8.6,1.5c-12.6,0-21-10.5-21-20.3
		c0-6.1,2.9-11.1,8.6-14.9l50-30.4l1.9-1.2V326v-10.2c0-4.1,0-9.7,1.9-17.3l0.8-3l-2.7-1.5L581.9,176.5l-3.2-1.8l-2.1,3
		c-7.1,10.4-18.2,18.5-31.3,22.8l-2.8,0.9v2.9v60.3c0,11.1-8.7,20.3-19.9,20.8C522.4,285.5,522,285.5,521.6,285.5 M516.1,66
		c-42.4,0-76.3,32.3-76.3,72.8v1.8L215.6,265.9c-14.8-10.1-29.6-14.1-46.5-14.1c-1.2-0.1-2.5-0.1-3.7-0.1
		c-40.6,0-72.4,31.6-72.4,70.8c0,30.3,19,56.5,48.7,68.6v243.8C112,643,93,669.3,93,697.5c0,40.4,33.8,72.7,76.1,72.7
		c14.8,0,31.7-4.1,44.4-12.1L442,883.3c0,40.4,33.8,72.7,76.1,72.7c42.3,0,76.1-32.3,76.1-72.7l226.4-125.3
		c12.7,8,27.5,12.1,42.3,12.1c42.3,0,76.1-32.3,76.1-72.7c-2.3-26.2-19.1-52.4-46.7-64.6V387c27.4-12.1,44.4-38.3,44.4-66.6
		c0-40.4-33.8-72.7-76.1-72.7c-14.8,0-31.7,4.1-44.4,14.1l-224-121.1v-1.2c0-38.1-30.4-70.3-70.2-73.2C520.1,66.1,518.1,66,516.1,66
		L516.1,66z M521.6,289.5c0.4,0,0.9,0,1.3,0c13.4-0.7,23.7-11.8,23.7-24.8v-60.3c12.5-4.1,25-12.2,33.3-24.3l210.6,117.6
		c-2.1,8.1-2.1,14.2-2.1,18.3V326l-50.1,30.4c-6.3,4.1-10.5,10.2-10.5,18.3c0,12.2,10.5,24.3,25,24.3c4.2,0,6.3,0,10.5-2l48-28.4
		c8.3,8.1,23,14.2,35.5,18.3v239.2h-4.2v0c-8.3,2-16.7,6.1-25,10.2l-56.3-30.4c-2.1,0-6.3-2-8.3-2c-12.5,0-25,10.2-25,24.3
		c0,8.1,4.2,14.2,10.5,18.3l50.1,28.4c-2.1,8.1-4.2,14.2-4.2,24.3c0,10.2,2.1,14.2,4.2,24.3L577.8,841
		c-8.3-10.2-18.8-18.3-35.5-26.3v-60.8c-2.1-12.2-10.5-22.3-25-22.3c-14.6,0-23,8.1-25,22.3v58.8c-14.6,4.1-29.2,12.2-37.5,26.3
		L242.1,719.4c2.1-8.1,4.2-14.2,4.2-22.3c0-6.1,0-10.2-2.1-14.2l50.1-30.4l2.1-2c6.3-4.1,10.5-10.2,10.5-18.3
		c0-12.2-10.5-24.3-25-24.3c-4.2,0-8.3,2-12.5,4.1l-50.1,30.4c-8.3-6.1-16.7-10.2-29.2-14.2V386.9c10.5-4.1,18.8-8.1,27.1-14.2
		l52.1,28.4c2.1,2,6.3,2,8.3,2c12.5,0,25-10.2,25-24.3c0-6.1-4.2-12.2-8.3-18.3l-45.9-28.4c2.1-4.1,2.1-10.2,2.1-14.2
		c0-6.1,0-12.2-2.1-18.3L461.1,180c8.3,10.2,23,18.3,35.5,24.3v60.8C496.6,277.4,507.1,289.5,521.6,289.5L521.6,289.5z"/>
</g>
</svg>
