<?xml version="1.0" encoding="utf-8"?>
<!-- Generator: Adobe Illustrator 28.2.0, SVG Export Plug-In . SVG Version: 6.00 Build 0)  -->
<svg version="1.1" id="Ebene_1" xmlns="http://www.w3.org/2000/svg" xmlns:xlink="http://www.w3.org/1999/xlink" x="0px" y="0px"
	 viewBox="0 0 1500 1500" style="enable-background:new 0 0 1500 1500;" xml:space="preserve">
<style type="text/css">
	.st0{fill:#FFFFFF;}
</style>
<circle class="st0" cx="752.2" cy="750" r="750"/>
<g>
	<path d="M1013.9,1077.6l27.6,55.3c7.3,14.7,19.6,23.1,33.6,23.1s26.2-8.4,33.5-23.1l27.6-55.3c7.9-15.8,13.8-40.9,13.8-58.5V444
		c0-27.6-22.4-50-50-50h-50c-27.6,0-50,22.4-50,50h-25c-27.6,0-50,22.4-50,50v100c0,13.8,11.2,25,25,25s25-11.2,25-25V494h25v525
		C1000,1036.7,1006,1061.9,1013.9,1077.6z M1050.1,444h50v575c0,9.8-4.2,27.4-8.5,36.2l-16.5,32.9l-16.5-32.9
		c-4.4-8.8-8.5-26.4-8.5-36.2V444z"/>
	<path d="M400,1144.1h450c27.6,0,50-22.4,50-50V594c0-20.5-10.5-45.9-25-60.3L760.3,419c-14.5-14.5-39.9-25-60.3-25H400
		c-27.6,0-50,22.4-50,50v650C350,1121.7,372.5,1144.1,400,1144.1z M814.6,544H750v-64.7L814.6,544z M400,444h300v100
		c0,27.6,22.4,50,50,50h100v500H400V444z"/>
	<path d="M475,569h137.5c13.8,0,25-11.2,25-25s-11.2-25-25-25H475c-13.8,0-25,11.2-25,25S461.2,569,475,569z"/>
	<path d="M775,644H475c-13.8,0-25,11.2-25,25s11.2,25,25,25h300c13.8,0,25-11.2,25-25S788.8,644,775,644z"/>
	<path d="M775,744H475c-13.8,0-25,11.2-25,25s11.2,25,25,25h300c13.8,0,25-11.2,25-25S788.8,744,775,744z"/>
	<path d="M775,844H475c-13.8,0-25,11.2-25,25s11.2,25,25,25h300c13.8,0,25-11.2,25-25S788.8,844,775,844z"/>
	<path d="M775,944H475c-13.8,0-25,11.2-25,25s11.2,25,25,25h300c13.8,0,25-11.2,25-25S788.8,944,775,944z"/>
</g>
</svg>
